<mxfile host="app.diagrams.net" modified="2023-04-01T06:29:51.423Z" agent="Mozilla/5.0 (Windows NT 10.0; Win64; x64) AppleWebKit/537.36 (KHTML, like Gecko) Chrome/111.0.0.0 Safari/537.36" etag="szSl8AUkP6bWoJIPdA3u" version="21.1.2" type="device">
  <diagram name="Page-1" id="hkNFU4E_PHqKA--Nvdw7">
    <mxGraphModel dx="763" dy="1079" grid="1" gridSize="10" guides="1" tooltips="1" connect="1" arrows="1" fold="1" page="1" pageScale="1" pageWidth="850" pageHeight="1100" math="0" shadow="0">
      <root>
        <mxCell id="0" />
        <mxCell id="1" parent="0" />
        <mxCell id="iIb6yg1JpqJSH3GkLZsh-34" value="Abstract Maze Manager" style="rounded=0;whiteSpace=wrap;html=1;align=center;spacingLeft=350;fillColor=none;dashed=1;dashPattern=1 4;" vertex="1" parent="1">
          <mxGeometry x="220" y="300" width="460" height="120" as="geometry" />
        </mxCell>
        <mxCell id="iIb6yg1JpqJSH3GkLZsh-1" value="Isometric Game" style="whiteSpace=wrap;html=1;aspect=fixed;" vertex="1" parent="1">
          <mxGeometry x="240" y="680" width="80" height="80" as="geometry" />
        </mxCell>
        <mxCell id="iIb6yg1JpqJSH3GkLZsh-2" value="Top-Down Game" style="whiteSpace=wrap;html=1;aspect=fixed;" vertex="1" parent="1">
          <mxGeometry x="360" y="680" width="80" height="80" as="geometry" />
        </mxCell>
        <mxCell id="iIb6yg1JpqJSH3GkLZsh-3" value="3D Game" style="whiteSpace=wrap;html=1;aspect=fixed;" vertex="1" parent="1">
          <mxGeometry x="480" y="680" width="80" height="80" as="geometry" />
        </mxCell>
        <mxCell id="iIb6yg1JpqJSH3GkLZsh-10" style="edgeStyle=orthogonalEdgeStyle;rounded=0;orthogonalLoop=1;jettySize=auto;html=1;exitX=0.5;exitY=1;exitDx=0;exitDy=0;entryX=0;entryY=0.25;entryDx=0;entryDy=0;" edge="1" parent="1" source="iIb6yg1JpqJSH3GkLZsh-6" target="iIb6yg1JpqJSH3GkLZsh-19">
          <mxGeometry relative="1" as="geometry" />
        </mxCell>
        <mxCell id="iIb6yg1JpqJSH3GkLZsh-6" value="Isometric Maze Manager" style="whiteSpace=wrap;html=1;aspect=fixed;" vertex="1" parent="1">
          <mxGeometry x="240" y="320" width="80" height="80" as="geometry" />
        </mxCell>
        <mxCell id="iIb6yg1JpqJSH3GkLZsh-11" style="edgeStyle=orthogonalEdgeStyle;rounded=0;orthogonalLoop=1;jettySize=auto;html=1;exitX=0.5;exitY=1;exitDx=0;exitDy=0;entryX=0.5;entryY=0;entryDx=0;entryDy=0;" edge="1" parent="1" source="iIb6yg1JpqJSH3GkLZsh-25" target="iIb6yg1JpqJSH3GkLZsh-2">
          <mxGeometry relative="1" as="geometry" />
        </mxCell>
        <mxCell id="iIb6yg1JpqJSH3GkLZsh-7" value="Top-Down Maze&lt;br&gt;Manager" style="whiteSpace=wrap;html=1;aspect=fixed;" vertex="1" parent="1">
          <mxGeometry x="360" y="320" width="80" height="80" as="geometry" />
        </mxCell>
        <mxCell id="iIb6yg1JpqJSH3GkLZsh-12" style="edgeStyle=orthogonalEdgeStyle;rounded=0;orthogonalLoop=1;jettySize=auto;html=1;exitX=0.5;exitY=1;exitDx=0;exitDy=0;entryX=1;entryY=0.25;entryDx=0;entryDy=0;" edge="1" parent="1" source="iIb6yg1JpqJSH3GkLZsh-8" target="iIb6yg1JpqJSH3GkLZsh-19">
          <mxGeometry relative="1" as="geometry" />
        </mxCell>
        <mxCell id="iIb6yg1JpqJSH3GkLZsh-8" value="3D Maze&lt;br&gt;Manager" style="whiteSpace=wrap;html=1;aspect=fixed;" vertex="1" parent="1">
          <mxGeometry x="480" y="320" width="80" height="80" as="geometry" />
        </mxCell>
        <mxCell id="iIb6yg1JpqJSH3GkLZsh-13" value="Maze Generator" style="rounded=0;whiteSpace=wrap;html=1;" vertex="1" parent="1">
          <mxGeometry x="340" y="220" width="120" height="60" as="geometry" />
        </mxCell>
        <mxCell id="iIb6yg1JpqJSH3GkLZsh-16" style="edgeStyle=orthogonalEdgeStyle;rounded=0;orthogonalLoop=1;jettySize=auto;html=1;exitX=0;exitY=0.5;exitDx=0;exitDy=0;entryX=0.5;entryY=0;entryDx=0;entryDy=0;" edge="1" parent="1" source="iIb6yg1JpqJSH3GkLZsh-13" target="iIb6yg1JpqJSH3GkLZsh-6">
          <mxGeometry relative="1" as="geometry">
            <mxPoint x="340" y="250" as="sourcePoint" />
          </mxGeometry>
        </mxCell>
        <mxCell id="iIb6yg1JpqJSH3GkLZsh-17" style="edgeStyle=orthogonalEdgeStyle;rounded=0;orthogonalLoop=1;jettySize=auto;html=1;exitX=0.5;exitY=1;exitDx=0;exitDy=0;entryX=0.5;entryY=0;entryDx=0;entryDy=0;" edge="1" parent="1" source="iIb6yg1JpqJSH3GkLZsh-13" target="iIb6yg1JpqJSH3GkLZsh-7">
          <mxGeometry relative="1" as="geometry">
            <mxPoint x="400" y="280" as="sourcePoint" />
          </mxGeometry>
        </mxCell>
        <mxCell id="iIb6yg1JpqJSH3GkLZsh-18" style="edgeStyle=orthogonalEdgeStyle;rounded=0;orthogonalLoop=1;jettySize=auto;html=1;exitX=1;exitY=0.5;exitDx=0;exitDy=0;entryX=0.5;entryY=0;entryDx=0;entryDy=0;" edge="1" parent="1" source="iIb6yg1JpqJSH3GkLZsh-13" target="iIb6yg1JpqJSH3GkLZsh-8">
          <mxGeometry relative="1" as="geometry">
            <mxPoint x="460" y="250" as="sourcePoint" />
          </mxGeometry>
        </mxCell>
        <mxCell id="iIb6yg1JpqJSH3GkLZsh-20" value="" style="edgeStyle=orthogonalEdgeStyle;rounded=0;orthogonalLoop=1;jettySize=auto;html=1;exitX=0.5;exitY=1;exitDx=0;exitDy=0;entryX=0.5;entryY=0;entryDx=0;entryDy=0;" edge="1" parent="1" source="iIb6yg1JpqJSH3GkLZsh-7" target="iIb6yg1JpqJSH3GkLZsh-19">
          <mxGeometry relative="1" as="geometry">
            <mxPoint x="400" y="400" as="sourcePoint" />
            <mxPoint x="400" y="560" as="targetPoint" />
          </mxGeometry>
        </mxCell>
        <mxCell id="iIb6yg1JpqJSH3GkLZsh-21" style="edgeStyle=orthogonalEdgeStyle;rounded=0;orthogonalLoop=1;jettySize=auto;html=1;exitX=0;exitY=0.75;exitDx=0;exitDy=0;entryX=0.5;entryY=0;entryDx=0;entryDy=0;" edge="1" parent="1" source="iIb6yg1JpqJSH3GkLZsh-19" target="iIb6yg1JpqJSH3GkLZsh-23">
          <mxGeometry relative="1" as="geometry" />
        </mxCell>
        <mxCell id="iIb6yg1JpqJSH3GkLZsh-22" style="edgeStyle=orthogonalEdgeStyle;rounded=0;orthogonalLoop=1;jettySize=auto;html=1;exitX=0.5;exitY=1;exitDx=0;exitDy=0;" edge="1" parent="1" source="iIb6yg1JpqJSH3GkLZsh-26" target="iIb6yg1JpqJSH3GkLZsh-3">
          <mxGeometry relative="1" as="geometry" />
        </mxCell>
        <mxCell id="iIb6yg1JpqJSH3GkLZsh-35" style="edgeStyle=orthogonalEdgeStyle;rounded=0;orthogonalLoop=1;jettySize=auto;html=1;exitX=1;exitY=0.5;exitDx=0;exitDy=0;entryX=0.826;entryY=1.008;entryDx=0;entryDy=0;dashed=1;entryPerimeter=0;" edge="1" parent="1" source="iIb6yg1JpqJSH3GkLZsh-19" target="iIb6yg1JpqJSH3GkLZsh-34">
          <mxGeometry relative="1" as="geometry" />
        </mxCell>
        <mxCell id="iIb6yg1JpqJSH3GkLZsh-38" value="&amp;lt;Reference&amp;gt;" style="edgeLabel;html=1;align=center;verticalAlign=middle;resizable=0;points=[];" vertex="1" connectable="0" parent="iIb6yg1JpqJSH3GkLZsh-35">
          <mxGeometry x="-0.0385" y="-1" relative="1" as="geometry">
            <mxPoint as="offset" />
          </mxGeometry>
        </mxCell>
        <mxCell id="iIb6yg1JpqJSH3GkLZsh-19" value="Game Manager" style="whiteSpace=wrap;html=1;aspect=fixed;fillColor=#dae8fc;strokeColor=#6c8ebf;" vertex="1" parent="1">
          <mxGeometry x="360" y="440" width="80" height="80" as="geometry" />
        </mxCell>
        <mxCell id="iIb6yg1JpqJSH3GkLZsh-29" style="edgeStyle=orthogonalEdgeStyle;rounded=0;orthogonalLoop=1;jettySize=auto;html=1;exitX=0.5;exitY=1;exitDx=0;exitDy=0;entryX=0.5;entryY=0;entryDx=0;entryDy=0;" edge="1" parent="1" source="iIb6yg1JpqJSH3GkLZsh-23" target="iIb6yg1JpqJSH3GkLZsh-1">
          <mxGeometry relative="1" as="geometry" />
        </mxCell>
        <mxCell id="iIb6yg1JpqJSH3GkLZsh-23" value="Isometric Camera" style="rounded=0;whiteSpace=wrap;html=1;fillColor=#d5e8d4;strokeColor=#82b366;" vertex="1" parent="1">
          <mxGeometry x="240" y="560" width="80" height="80" as="geometry" />
        </mxCell>
        <mxCell id="iIb6yg1JpqJSH3GkLZsh-27" value="" style="edgeStyle=orthogonalEdgeStyle;rounded=0;orthogonalLoop=1;jettySize=auto;html=1;exitX=0.5;exitY=1;exitDx=0;exitDy=0;entryX=0.5;entryY=0;entryDx=0;entryDy=0;" edge="1" parent="1" source="iIb6yg1JpqJSH3GkLZsh-19" target="iIb6yg1JpqJSH3GkLZsh-25">
          <mxGeometry relative="1" as="geometry">
            <mxPoint x="400" y="520" as="sourcePoint" />
            <mxPoint x="400" y="680" as="targetPoint" />
          </mxGeometry>
        </mxCell>
        <mxCell id="iIb6yg1JpqJSH3GkLZsh-25" value="Top-Down Camera" style="rounded=0;whiteSpace=wrap;html=1;fillColor=#d5e8d4;strokeColor=#82b366;" vertex="1" parent="1">
          <mxGeometry x="360" y="560" width="80" height="80" as="geometry" />
        </mxCell>
        <mxCell id="iIb6yg1JpqJSH3GkLZsh-28" value="" style="edgeStyle=orthogonalEdgeStyle;rounded=0;orthogonalLoop=1;jettySize=auto;html=1;exitX=1;exitY=0.75;exitDx=0;exitDy=0;" edge="1" parent="1" source="iIb6yg1JpqJSH3GkLZsh-19" target="iIb6yg1JpqJSH3GkLZsh-26">
          <mxGeometry relative="1" as="geometry">
            <mxPoint x="440" y="500" as="sourcePoint" />
            <mxPoint x="520" y="680" as="targetPoint" />
          </mxGeometry>
        </mxCell>
        <mxCell id="iIb6yg1JpqJSH3GkLZsh-36" style="edgeStyle=orthogonalEdgeStyle;rounded=0;orthogonalLoop=1;jettySize=auto;html=1;exitX=1;exitY=0.5;exitDx=0;exitDy=0;entryX=0.911;entryY=1.033;entryDx=0;entryDy=0;dashed=1;dashPattern=1 4;entryPerimeter=0;" edge="1" parent="1" source="iIb6yg1JpqJSH3GkLZsh-26" target="iIb6yg1JpqJSH3GkLZsh-34">
          <mxGeometry relative="1" as="geometry">
            <Array as="points">
              <mxPoint x="639" y="600" />
            </Array>
          </mxGeometry>
        </mxCell>
        <mxCell id="iIb6yg1JpqJSH3GkLZsh-37" value="&amp;lt;Script Component&amp;gt;" style="edgeLabel;html=1;align=center;verticalAlign=middle;resizable=0;points=[];" vertex="1" connectable="0" parent="iIb6yg1JpqJSH3GkLZsh-36">
          <mxGeometry x="-0.2071" y="-1" relative="1" as="geometry">
            <mxPoint as="offset" />
          </mxGeometry>
        </mxCell>
        <mxCell id="iIb6yg1JpqJSH3GkLZsh-26" value="3D Camera" style="rounded=0;whiteSpace=wrap;html=1;fillColor=#d5e8d4;strokeColor=#82b366;" vertex="1" parent="1">
          <mxGeometry x="480" y="560" width="80" height="80" as="geometry" />
        </mxCell>
      </root>
    </mxGraphModel>
  </diagram>
</mxfile>
